<?xml version="1.0" encoding="UTF-8" standalone="no"?>
<svg width="142px" height="39px" viewBox="0 0 142 39" version="1.1" xmlns="http://www.w3.org/2000/svg" xmlns:xlink="http://www.w3.org/1999/xlink">
    <!-- Generator: Sketch 3.8.3 (29802) - http://www.bohemiancoding.com/sketch -->
    <title>logo</title>
    <desc>Created with Sketch.</desc>
    <defs></defs>
    <g id="-10.0-Become-a-Host" stroke="none" stroke-width="1" fill="none" fill-rule="evenodd">
        <g id="7.1-becomeAHostPricingSelected" transform="translate(-56.000000, -32.000000)" fill="#32BA55">
            <g id="header">
                <g id="logo" transform="translate(56.000000, 32.000000)">
                    <path d="M68.2257219,22.4941129 C68.2257219,23.037534 68.3263274,23.5535733 68.5301584,24.0401247 C68.7329413,24.5272026 69.0195622,24.9568844 69.3921169,25.3307496 C69.7630997,25.7040883 70.191197,26.0042336 70.675361,26.2301325 C71.1605729,26.4565579 71.6950396,26.5697706 72.281381,26.5697706 C72.844667,26.5697706 73.3733698,26.4565579 73.8695855,26.2301325 C74.3647531,26.0042336 74.7991383,25.7040883 75.1701211,25.3307496 C75.5426758,24.9568844 75.8292967,24.5272026 76.0320796,24.0401247 C76.2353866,23.5535733 76.3365161,23.037534 76.3365161,22.4941129 C76.3365161,21.9512185 76.2353866,21.4362323 76.0320796,20.9491543 C75.8292967,20.4626029 75.5426758,20.0323946 75.1701211,19.6585294 C74.7991383,19.2851907 74.3647531,18.9850454 73.8695855,18.7580934 C73.3733698,18.5327211 72.844667,18.4189818 72.281381,18.4189818 C71.6950396,18.4189818 71.1605729,18.5327211 70.675361,18.7580934 C70.191197,18.9850454 69.7630997,19.2851907 69.3921169,19.6585294 C69.0195622,20.0323946 68.7329413,20.4626029 68.5301584,20.9491543 C68.3263274,21.4362323 68.2257219,21.9512185 68.2257219,22.4941129 L68.2257219,22.4941129 Z M81,29.4574847 C81,32.581629 80.2171635,34.9527771 78.6514905,36.5725088 C77.0852934,38.1901342 74.7027247,39 71.5043083,39 C70.0392408,39 68.5972287,38.8362365 67.177748,38.5081829 C66.2235678,38.2870232 65.3202143,37.9257956 64.4676875,37.4234471 C63.7267699,37.0042968 63.5674779,36.1243971 64.0091989,35.4609179 L65.2714835,33.5663163 C65.7163484,32.9033637 66.5122846,32.7648756 67.1321612,33.1687554 C67.5911737,33.4678476 68.062762,33.7248141 68.546402,33.9401816 C69.4141244,34.3245782 70.3656847,34.5173031 71.4021309,34.5173031 C72.9573242,34.5173031 74.0142059,34.0423363 74.8331975,33.3793837 C75.6841523,32.6901026 76.0546111,31.7775554 76.0608989,30.3895149 C76.0619469,30.1399204 75.7879017,29.9756303 75.576211,30.1062199 C74.9416628,30.4964088 73.6039241,31.0693178 71.2339311,31.0529941 C65.9856777,31.0529941 63,26.1190261 63,22.5388715 C63,18.304716 66.3304611,14 71.4974965,14 C75.0317885,14 76.3365161,15.5723403 76.3365161,15.5723403 L76.3365161,14.7798513 C76.3365161,14.5550056 76.501572,14.3280536 76.782953,14.3280536 C77.9572077,14.3280536 79.2954704,14.3301599 80.5525151,14.3301599 C80.8606195,14.3301599 81,14.5792278 81,14.7793247 L81,29.4574847 Z" id="Fill-23"></path>
                    <path d="M48.2257219,22.4941129 C48.2257219,23.037534 48.3263274,23.5535733 48.5301584,24.0401247 C48.7329413,24.5272026 49.0195622,24.9568844 49.3921169,25.3307496 C49.7630997,25.7040883 50.191197,26.0042336 50.675361,26.2301325 C51.1605729,26.4565579 51.6950396,26.5697706 52.281381,26.5697706 C52.844667,26.5697706 53.3733698,26.4565579 53.8695855,26.2301325 C54.3647531,26.0042336 54.7991383,25.7040883 55.1701211,25.3307496 C55.5426758,24.9568844 55.8292967,24.5272026 56.0320796,24.0401247 C56.2353866,23.5535733 56.3365161,23.037534 56.3365161,22.4941129 C56.3365161,21.9512185 56.2353866,21.4362323 56.0320796,20.9491543 C55.8292967,20.4626029 55.5426758,20.0323946 55.1701211,19.6585294 C54.7991383,19.2851907 54.3647531,18.9850454 53.8695855,18.7580934 C53.3733698,18.5327211 52.844667,18.4189818 52.281381,18.4189818 C51.6950396,18.4189818 51.1605729,18.5327211 50.675361,18.7580934 C50.191197,18.9850454 49.7630997,19.2851907 49.3921169,19.6585294 C49.0195622,20.0323946 48.7329413,20.4626029 48.5301584,20.9491543 C48.3263274,21.4362323 48.2257219,21.9512185 48.2257219,22.4941129 L48.2257219,22.4941129 Z M61,29.4574847 C61,32.581629 60.2171635,34.9527771 58.6514905,36.5725088 C57.0852934,38.1901342 54.7027247,39 51.5043083,39 C50.0392408,39 48.5972287,38.8362365 47.177748,38.5081829 C46.2235678,38.2870232 45.3202143,37.9257956 44.4676875,37.4234471 C43.7267699,37.0042968 43.5674779,36.1243971 44.0091989,35.4609179 L45.2714835,33.5663163 C45.7163484,32.9033637 46.5122846,32.7648756 47.1321612,33.1687554 C47.5911737,33.4678476 48.062762,33.7248141 48.546402,33.9401816 C49.4141244,34.3245782 50.3656847,34.5173031 51.4021309,34.5173031 C52.9573242,34.5173031 54.0142059,34.0423363 54.8331975,33.3793837 C55.6841523,32.6901026 56.0546111,31.7775554 56.0608989,30.3895149 C56.0619469,30.1399204 55.7879017,29.9756303 55.576211,30.1062199 C54.9416628,30.4964088 53.6039241,31.0693178 51.2339311,31.0529941 C45.9856777,31.0529941 43,26.1190261 43,22.5388715 C43,18.304716 46.3304611,14 51.4974965,14 C55.0317885,14 56.3365161,15.5723403 56.3365161,15.5723403 L56.3365161,14.7798513 C56.3365161,14.5550056 56.501572,14.3280536 56.782953,14.3280536 C57.9572077,14.3280536 59.2954704,14.3301599 60.5525151,14.3301599 C60.8606195,14.3301599 61,14.5792278 61,14.7793247 L61,29.4574847 Z" id="Fill-24"></path>
                    <path d="M35.8539312,15.6026182 L40.1415139,15.6026182 C40.4367297,15.6026182 40.5870117,15.8383977 40.5870117,16.0186708 L40.5870117,30.5697025 C40.5870117,30.8408489 40.3522295,31 40.1415139,31 L35.8603489,31 C35.6432155,31 35.4137814,30.8413401 35.4137814,30.5697025 L35.4137814,16.0186708 C35.4137814,15.8649229 35.5143259,15.6026182 35.8539312,15.6026182 M35.0073248,10.5382717 C35.0533186,9.93703408 35.292914,9.40947752 35.7266461,8.95560204 C36.3491665,8.30426126 37.2931085,7.94617119 38.2343765,8.00658968 C38.8900553,8.0488335 39.4649775,8.26889434 39.959678,8.66824582 C40.6683031,9.23951982 41.0581805,10.1065006 40.9929336,10.9705341 C40.9474746,11.5683333 40.7105532,12.0934338 40.2810996,12.5463269 C39.6596488,13.2020885 38.7130327,13.5641083 37.7690907,13.504181 C37.1171556,13.4634108 36.5443726,13.245806 36.0502069,12.8508754 C35.3346293,12.2791101 34.9404734,11.4072173 35.0073248,10.5382717" id="Fill-25"></path>
                    <path d="M109.609696,19.021583 L106.199828,19.021583 C105.98425,19.021583 105.809524,19.1960092 105.809524,19.4112168 L105.809524,24.1556114 C105.809524,24.5786565 105.830196,24.963377 105.872524,25.3117382 C105.914852,25.6605908 106.010336,25.9617832 106.158484,26.2153154 C106.306632,26.4688477 106.534022,26.6639103 106.841147,26.801486 C107.147779,26.9390616 107.555309,27.0078494 108.063246,27.0078494 C108.317214,27.0078494 108.650425,26.981317 109.062877,26.9277608 C109.227759,26.9071244 109.3764,26.8751872 109.50929,26.8324405 C109.753415,26.7533345 110,26.9528192 110,27.2088082 L110,30.2423512 C110,30.4108814 109.892703,30.5646713 109.731758,30.6152795 C109.285345,30.7562946 108.824166,30.8525975 108.349206,30.9056624 C107.777286,30.9690455 107.216685,31 106.666421,31 C105.862188,31 105.121447,30.9159806 104.444691,30.7464677 C103.76695,30.5779376 103.174357,30.3091737 102.666421,29.9387021 C102.158484,29.5697046 101.762274,29.0881898 101.476314,28.4966145 C101.190353,27.9055306 101.047619,27.1876805 101.047619,26.3415902 L101.047619,19.4112168 C101.047619,19.1960092 100.872893,19.021583 100.657315,19.021583 L98.3903039,19.021583 C98.1747262,19.021583 98,18.8471567 98,18.6319491 L98,15.6077415 C98.0019687,15.4426507 98.1747262,15.2185989 98.3903039,15.2185989 L100.657315,15.2185989 C100.872893,15.2185989 101.047619,15.0441726 101.047619,14.828965 L101.047619,12.2828328 C101.047619,12.1432918 101.120955,12.0150516 101.242525,11.9457725 C101.905992,11.5659654 104.047496,10.3523516 105.26615,10.017748 C105.53636,9.94011603 105.815922,10.1248605 105.815922,10.4216308 L105.809524,14.828965 C105.809524,15.0441726 105.98425,15.2185989 106.199828,15.2185989 L109.609696,15.2185989 C109.802633,15.2185989 110,15.3930252 110,15.6077415 L110,18.6319491 C110,18.8471567 109.825274,19.021583 109.609696,19.021583" id="Fill-27"></path>
                    <path d="M123.251121,20.667072 C123.605199,20.667072 123.894178,20.3595598 123.832783,20.0189706 C123.729577,19.4468428 123.46071,18.9403521 123.026183,18.4994984 C122.434465,17.8999787 121.671793,17.5997021 120.739228,17.5997021 C120.169738,17.5997021 119.669583,17.6891132 119.237173,17.8663849 C118.804763,18.0446904 118.435336,18.2726112 118.127833,18.5501474 C117.82033,18.8276837 117.581102,19.1496671 117.411208,19.5166145 L117.235492,19.8933816 C117.067186,20.2556775 117.361986,20.667072 117.745704,20.667072 L123.251121,20.667072 Z M127.707005,27.4364758 C127.992808,27.6406226 128.024035,28.0411638 127.783748,28.294926 C127.041719,29.0810203 126.149907,29.7053476 125.108842,30.1673912 C123.85713,30.7224637 122.559371,31 121.216625,31 C119.941625,31 118.741781,30.7999878 117.615504,30.4004803 C116.488699,29.9999392 115.509558,29.4283282 114.680199,28.6830633 C113.848724,27.9393488 113.194552,27.0447208 112.717154,26.0002128 C112.239228,24.9557049 112,23.7892257 112,22.4997416 C112,21.2112912 112.239228,20.044812 112.717154,18.9997872 C113.194552,17.9552792 113.848724,17.0606512 114.680199,16.3169367 C115.509558,15.5727054 116.488699,15.0000608 117.615504,14.5995197 C118.741781,14.2000122 119.941625,14 121.216625,14 C122.400062,14 123.475529,14.2000122 124.443026,14.5995197 C125.409994,15.0000608 126.229296,15.5727054 126.900934,16.3169367 C127.572042,17.0606512 128.089664,17.9552792 128.453798,18.9997872 C128.817403,20.044812 129,21.2112912 129,22.4997416 L129,23.4961846 C129,23.8114492 128.738543,24.0672788 128.415691,24.0672788 L117.902366,24.0672788 C117.500654,24.0672788 117.202677,24.4590338 117.348755,24.8244307 C117.592746,25.4337701 117.960585,25.9423282 118.451743,26.3501049 C119.134496,26.9170644 119.976027,27.2002858 120.977927,27.2002858 C121.819458,27.2002858 122.530791,27.0168121 123.111395,26.6503815 C123.551214,26.3723285 123.948163,26.0338066 124.3033,25.6348159 C124.499658,25.4141307 124.839446,25.3826042 125.080791,25.5557413 L127.707005,27.4364758 Z" id="Fill-28"></path>
                    <path d="M135.397107,14.3900685 C135.723262,14.3900685 135.8245,14.7113325 135.8245,14.8447073 L135.8245,17.0718555 L135.888833,17.0718555 C136.4035,16.0487858 137.014417,15.2797634 137.722084,14.7679639 C138.42975,14.2556351 139.319944,14 140.392166,14 C140.670445,14 140.949721,14.0111146 141.228998,14.0344022 C141.232987,14.0349315 141.237476,14.0349315 141.241465,14.0354608 C141.673845,14.0709215 142,14.4694583 142,14.9293898 L142,17.7101494 C142,18.2775218 141.578592,18.6998755 140.997098,18.5929639 C140.993607,18.5924346 140.990615,18.5919054 140.987124,18.5913761 C140.654985,18.5347447 140.306388,18.5061644 139.941833,18.5061644 C139.019722,18.5061644 138.290112,18.6421856 137.7545,18.9152864 C137.218887,19.1889166 136.805957,19.5699875 136.516208,20.0590286 C136.226459,20.5491283 136.038945,21.1339664 135.953666,21.8177771 C135.86689,22.5 135.8245,23.2510274 135.8245,24.0708593 L135.8245,30.5776463 C135.8245,30.7978207 135.586118,31 135.427529,31 L131.426894,31 C131.286258,31 131,30.8750934 131,30.5421856 L131,14.8452366 C131,14.6509963 131.149114,14.38901 131.426395,14.38901 C132.660697,14.38901 134.455547,14.3900685 135.397107,14.3900685" id="Fill-29"></path>
                    <path d="M26.1399551,12.8675323 C22.409503,14.945566 19.1173033,17.7161091 16.4382523,21.0057814 C16.3053107,21.1665245 16.107162,21.2711591 15.8822229,21.2711591 C15.6876125,21.2711591 15.5091776,21.1968534 15.3792689,21.0719995 C13.4902853,19.4034057 11.4117461,17.9445866 9.18004613,16.7319369 C8.95965627,16.608094 8.81155025,16.3700123 8.81155025,16.0990743 C8.81155025,15.9322655 8.86513127,15.7770827 8.95915079,15.6547563 C9.67592329,14.7509557 10.428585,13.8769785 11.2146084,13.0348466 C11.346539,12.8938173 11.5345781,12.8058636 11.7433419,12.8058636 C11.8681957,12.8058636 11.9885003,12.835687 12.091113,12.8917954 C13.1288661,13.4811866 14.1362904,14.1180931 15.1108584,14.7994819 C15.1801093,14.8545793 15.2670521,14.8884466 15.3625881,14.8924904 C15.4823871,14.8970398 15.5940985,14.8540739 15.675481,14.7787571 C18.9024737,11.6245538 22.7036932,9.03446751 26.8814962,7.17429628 C27.1802357,7.0438821 27.5098095,6.97159827 27.8560642,6.97159827 C28.7719963,6.97159827 29.5696458,7.47707958 29.9861624,8.22418096 L29.9866679,8.22418096 C31.269074,10.5261429 32,13.1778978 32,16 C32,24.8368243 24.8368243,32 16,32 C7.16317569,32 0,24.8368243 0,16 C0,7.16368117 7.16317569,0 16,0 C19.1602692,0 22.1062143,0.91643762 24.5871165,2.49758317 L24.5881275,2.49455028 C24.7352226,2.58300951 24.8337914,2.74375257 24.8337914,2.92774776 C24.8337914,3.12943481 24.7160143,3.3028149 24.5451616,3.38419739 C23.1737908,4.01655451 21.8418475,4.72068998 20.5533757,5.49053802 L20.5523647,5.48902158 C20.4396424,5.56130541 20.3056898,5.60326035 20.1621331,5.60326035 C20.0620478,5.60326035 19.9670173,5.5830411 19.8800746,5.54664645 L19.8760307,5.54664645 C18.6689413,5.09879 17.3632831,4.85413705 16,4.85413705 C9.84424857,4.85413705 4.85413705,9.84424857 4.85413705,16 C4.85413705,22.1557514 9.84424857,27.145863 16,27.145863 C22.1557514,27.145863 27.145863,22.1557514 27.145863,16 C27.145863,15.0052128 27.0154488,14.0402489 26.7707958,13.1222949 L26.7702903,13.1222949 C26.7197422,12.9484093 26.5625375,12.8185006 26.3714656,12.8109184 C26.2870502,12.80738 26.2076896,12.8281048 26.1399551,12.8670268" id="Fill-30"></path>
                    <path d="M92.8462935,18.776001 C92.6495259,18.9801478 92.3334155,18.9832487 92.133689,18.7822029 C91.4832216,18.1273827 90.6724799,17.7997142 89.7019569,17.7997142 C89.2990518,17.7997142 88.9074892,17.8999787 88.5252964,18.0999909 C88.1435968,18.300003 87.9532402,18.64421 87.9532402,19.1336455 C87.9532402,19.533153 88.1490215,19.8282613 88.5415704,20.0169033 C88.9331331,20.2060621 89.4317096,20.3724805 90.0358207,20.5171921 C90.6409181,20.6619037 91.2869471,20.8164351 91.9763735,20.9838871 C92.6648136,21.1503055 93.3123221,21.4113033 93.9169263,21.7668805 C94.5210374,22.1219408 95.0186277,22.6056912 95.4111766,23.2170979 C95.8037255,23.8285045 96,24.6450917 96,25.6668592 C96,26.711884 95.78252,27.5729183 95.3485463,28.2504788 C94.9135863,28.9285562 94.3563247,29.4727754 93.6777476,29.8831362 C92.9986774,30.2950476 92.2362646,30.583954 91.3880433,30.7503724 C90.539822,30.9167908 89.7019569,31 88.8754343,31 C87.793459,31 86.7011275,30.8392667 85.5994261,30.5172833 C84.6792046,30.2485331 83.836408,29.7647828 83.1528995,29.1471742 C82.963036,28.9616332 82.9408441,28.636032 83.1381049,28.4070775 L85.3114254,25.8787584 C85.514604,25.6244794 85.8499473,25.640501 86.0560848,25.8611863 C86.4027706,26.2327851 86.7755934,26.5289271 87.1740602,26.7501292 C87.7140615,27.0504059 88.3448028,27.2002858 89.0662841,27.2002858 C89.6176279,27.2002858 90.1152182,27.1170766 90.5615207,26.9501414 C91.0063437,26.783723 91.2292484,26.4787949 91.2292484,26.0338066 C91.2292484,25.6115587 91.0324808,25.2952604 90.6409181,25.0833612 C90.2483692,24.8730125 89.7502858,24.6947071 89.1456815,24.5499954 C88.5415704,24.4063175 87.8945551,24.2497188 87.2051287,24.0833004 C86.5157024,23.916882 85.8691802,23.6667376 85.2650691,23.3339008 C84.6604649,23.0000304 84.1623814,22.5281671 83.7698325,21.9167604 C83.3772836,21.3053537 83.1815023,20.4892834 83.1815023,19.4664822 C83.1815023,18.5113854 83.3669274,17.68963 83.7382708,16.9996656 C84.109121,16.3112516 84.5973414,15.7442921 85.2014525,15.2993038 C85.8055636,14.8553492 86.4999215,14.5281975 87.2850194,14.3168151 C88.0686377,14.1059496 88.8640918,14 89.669902,14 C90.6882607,14 91.7164825,14.155565 92.7555536,14.466695 C93.6067338,14.7214909 94.3518863,15.1406378 94.9900249,15.7241358 C95.2183542,15.9329341 95.2341351,16.3003983 95.0186277,16.5241845 L92.8462935,18.776001 Z" id="Fill-26"></path>
                </g>
            </g>
        </g>
    </g>
</svg>